<?xml version="1.0" standalone="no"?><!DOCTYPE svg PUBLIC "-//W3C//DTD SVG 1.1//EN" "http://www.w3.org/Graphics/SVG/1.1/DTD/svg11.dtd"><svg t="1743759662894" class="icon" viewBox="0 0 1024 1024" version="1.1" xmlns="http://www.w3.org/2000/svg" p-id="7104" xmlns:xlink="http://www.w3.org/1999/xlink" width="200" height="200"><path d="M368.5376 690.602667h99.447467v-115.7632h-99.447467v115.7632z m292.522667 0h99.4304v-115.7632h-99.447467v115.7632z m181.589333-336.128l21.845333 157.4912v28.8768h-26.282666v112.401066c-12.032 0.682667-23.381333 3.9936-33.450667 9.3696V540.842667h-152.285867l-88.917333-111.6672-88.9344 111.6672h-152.285867V761.173333h193.450667V574.839467h95.522133V761.173333h123.101867a57.173333 57.173333 0 0 1 55.0912-59.0336 81.1008 81.1008 0 0 1 67.037867-35.3792 81.134933 81.134933 0 0 1 71.543466 42.8032 65.058133 65.058133 0 0 1 67.6352 51.6096h17.408v33.706667H83.336533v-33.6896H139.434667l20.036266-12.5952 14.8992-33.911467 5.4272-29.2864-4.3008-10.376533c-36.027733 0.136533-79.018667 0.6144-92.535466-36.6592-3.857067-10.615467-11.0592-15.889067-26.862934-28.228267-30.1568-23.534933-32.085333-40.328533-41.130666-74.581333-3.106133-11.776-4.334933-22.4256-3.140267-29.866667 5.512533-29.2864-1.0752-25.685333-5.3248-49.3056-10.069333-47.889067 14.660267-111.035733 44.578133-142.404266 13.943467-14.592 20.9408-17.066667 30.378667-25.873067 2.850133-2.679467 5.205333-7.441067 14.8992-22.186667 27.818667-21.504 69.461333-43.707733 115.985067-44.680533 30.464-0.648533 58.5728 12.7488 83.7632 24.183467 22.749867 12.3904 12.373333 9.352533 43.025066 14.216533 43.4688 6.894933 80.145067 40.2432 100.488534 75.025067H267.178667l-24.405334 175.940266v50.0736h26.282667v114.363734c-8.413867-1.5872-17.732267-3.857067-25.8048-5.5296l-9.045333 0.6656-0.768 6.621866 0.290133 20.565334 8.277333 40.942933 18.346667 22.869333h28.501333V540.842667h-26.248533v-28.8768l21.845333-157.4912h558.216534z" fill="#303133" p-id="7105"></path></svg>